<?xml version="1.0" standalone="no"?>
<!DOCTYPE svg PUBLIC "-//W3C//DTD SVG 20010904//EN"
 "http://www.w3.org/TR/2001/REC-SVG-20010904/DTD/svg10.dtd">
<svg version="1.0" xmlns="http://www.w3.org/2000/svg"
 width="2254.000000pt" height="912.000000pt" viewBox="0 0 2254.000000 912.000000"
 preserveAspectRatio="xMidYMid meet">

<g transform="translate(0.000000,912.000000) scale(0.100000,-0.100000)"
fill="#000000" stroke="none">
<path d="M1710 9109 c0 -7 11 -71 25 -143 14 -72 46 -245 70 -383 24 -139 51
-266 60 -283 8 -16 33 -39 55 -50 38 -20 57 -20 812 -20 738 0 775 1 815 19
66 30 67 36 138 451 30 175 41 236 61 332 8 37 14 72 14 78 0 7 -44 10 -137 8
-114 -3 -138 -6 -140 -18 -10 -76 -17 -95 -54 -135 -50 -54 -122 -85 -213 -92
-148 -11 -270 41 -318 136 -16 30 -28 67 -28 83 l0 28 -134 0 -133 0 -6 -41
c-10 -73 -54 -129 -131 -169 -66 -34 -73 -35 -175 -35 -127 1 -188 22 -250 90
-37 40 -44 59 -54 135 -2 12 -26 15 -140 18 -100 2 -137 -1 -137 -9z m1169
-433 c104 -52 148 -61 301 -61 91 0 158 5 179 13 19 6 36 10 38 8 2 -2 -1 -33
-8 -70 l-11 -66 -643 0 -643 0 -12 65 c-7 36 -10 68 -8 70 3 3 20 -1 39 -7 57
-21 312 -17 379 6 74 25 157 69 205 110 l39 33 50 -39 c27 -22 70 -50 95 -62z"/>
<path d="M6815 9090 c-94 -24 -153 -51 -228 -102 -218 -148 -337 -361 -337
-605 0 -291 144 -528 393 -647 105 -50 177 -67 317 -73 259 -11 427 44 591
195 154 142 230 341 216 567 -9 149 -56 270 -155 398 -92 121 -258 229 -408
267 -103 27 -289 27 -389 0z"/>
<path d="M9253 6868 c3 -2121 -1 -1971 63 -2256 154 -687 630 -1165 1307
-1311 182 -39 333 -51 664 -51 l313 0 0 804 0 803 -152 6 c-217 8 -334 42
-417 120 -41 39 -83 128 -107 227 -17 70 -18 184 -21 1833 l-4 1757 -825 0
-825 0 4 -1932z"/>
<path d="M623 8489 c-17 -5 -43 -23 -57 -40 l-26 -31 0 -1631 c0 -1588 1
-1635 20 -1751 118 -699 555 -1279 1199 -1594 152 -74 206 -85 256 -54 17 10
118 135 226 278 381 501 470 619 483 632 11 11 39 -21 160 -180 80 -106 237
-312 348 -457 245 -321 244 -320 389 -261 284 117 583 336 792 580 220 256
377 554 456 868 64 255 61 167 61 1948 l0 1622 -26 31 c-14 17 -42 35 -62 41
-23 6 -202 10 -460 10 -465 0 -465 0 -516 -61 -24 -29 -28 -39 -24 -81 4 -33
13 -57 29 -75 48 -51 61 -53 444 -53 l355 0 0 -1472 c-1 -1203 -3 -1495 -15
-1592 -7 -65 -15 -120 -17 -121 -2 -2 -170 211 -373 472 -204 261 -383 486
-398 499 -15 13 -43 26 -62 30 -63 11 -100 -17 -216 -169 -58 -76 -112 -145
-121 -153 -16 -16 17 -57 -458 568 -96 127 -187 240 -202 251 -37 27 -109 27
-146 0 -30 -22 -22 -12 -389 -495 -141 -186 -259 -338 -262 -337 -3 0 -58 68
-121 152 -85 112 -125 157 -153 171 -46 22 -94 16 -134 -18 -15 -13 -194 -238
-398 -499 -203 -261 -372 -473 -374 -471 -2 2 -10 54 -17 116 -10 89 -13 426
-14 1591 l0 1477 355 0 c385 0 396 1 445 55 20 21 25 37 25 80 0 43 -5 59 -25
80 -50 55 -54 55 -517 54 -235 0 -442 -5 -460 -10z m2535 -2829 c169 -223 372
-490 452 -595 79 -104 207 -273 285 -375 78 -102 192 -252 253 -333 l113 -148
-49 -57 c-160 -184 -382 -357 -597 -465 l-51 -25 -284 375 c-424 559 -454 597
-485 613 -38 20 -98 17 -132 -8 -16 -11 -102 -117 -191 -234 -238 -313 -492
-647 -533 -700 l-36 -46 -89 47 c-203 107 -425 285 -566 453 l-39 47 180 238
c100 131 218 287 264 347 45 60 123 161 172 226 50 65 135 177 190 250 55 73
127 167 160 210 33 43 172 226 310 407 l250 329 57 -75 c32 -42 196 -258 366
-481z"/>
<path d="M13563 8171 c-389 -320 -689 -745 -847 -1200 -31 -90 -33 -101 -18
-105 9 -3 298 -89 642 -191 344 -102 637 -190 653 -195 27 -9 28 -7 66 69 99
196 263 390 419 496 48 32 72 55 69 65 -3 12 -387 525 -749 1001 -36 47 -73
100 -84 117 -10 18 -24 32 -31 32 -6 0 -60 -40 -120 -89z"/>
<path d="M16430 7640 l-442 -611 29 -21 c60 -45 221 -216 265 -283 47 -72 120
-210 133 -255 9 -32 34 -60 53 -60 8 0 105 29 216 65 110 35 416 132 679 214
263 82 485 155 493 162 17 14 13 34 -29 144 -146 390 -365 725 -663 1016 -114
110 -266 239 -283 239 -5 0 -207 -275 -451 -610z"/>
<path d="M6240 5275 l0 -2025 765 0 765 0 0 2025 0 2025 -765 0 -765 0 0
-2025z"/>
<path d="M13780 5601 c-107 -37 -397 -136 -645 -221 -247 -84 -454 -157 -458
-161 -18 -15 79 -282 166 -455 132 -263 358 -571 554 -755 404 -379 904 -633
1415 -718 112 -19 322 -41 390 -41 l27 0 4 108 3 107 2 -109 2 -109 163 6
c244 8 526 63 761 148 232 84 488 215 646 330 30 22 61 44 69 48 17 10 44 -30
-367 541 -326 453 -443 613 -477 654 l-24 30 -69 -46 c-191 -127 -392 -195
-629 -213 -83 -7 -92 -10 -96 -29 l-4 -21 -2 21 c-1 27 -25 34 -117 34 -89 0
-272 45 -386 94 -329 142 -581 411 -698 746 -13 36 -26 68 -29 72 -3 3 -94
-24 -201 -61z m1447 -1623 c-1 -57 -3 -11 -3 102 0 113 2 159 3 103 2 -57 2
-149 0 -205z"/>
<path d="M538 2253 c-30 -19 -58 -68 -58 -101 0 -85 85 -141 163 -108 47 19
67 51 67 108 0 38 -6 54 -28 79 -35 39 -102 49 -144 22z"/>
<path d="M5018 2253 c-120 -77 -25 -264 105 -209 47 19 67 51 67 108 0 38 -6
54 -28 79 -35 39 -102 49 -144 22z"/>
<path d="M11548 2252 c-30 -18 -58 -67 -58 -101 0 -106 126 -156 202 -81 23
23 28 37 28 77 0 55 -17 86 -60 108 -38 20 -78 19 -112 -3z"/>
<path d="M14225 2226 c-136 -43 -254 -156 -300 -286 -85 -239 19 -512 232
-613 65 -30 74 -32 188 -32 111 0 125 2 182 29 73 33 158 117 196 192 26 51
50 129 62 197 l6 37 -136 0 c-133 0 -135 0 -135 -22 -1 -35 -34 -100 -69 -132
-24 -23 -42 -30 -85 -34 -72 -6 -98 2 -142 40 -101 89 -88 269 25 345 40 27
126 31 171 8 33 -17 66 -57 84 -100 l13 -30 132 9 133 9 -7 41 c-15 100 -94
219 -188 287 -85 61 -259 88 -362 55z"/>
<path d="M1520 1901 c0 -290 2 -325 20 -383 36 -118 141 -205 261 -215 l59 -6
0 130 0 131 -35 6 c-42 8 -65 38 -72 96 l-6 40 52 0 51 0 0 129 0 130 -47 3
-48 3 -3 128 -3 127 -114 0 -115 0 0 -319z"/>
<path d="M4512 1883 c3 -294 6 -344 22 -385 39 -103 147 -185 257 -195 l59 -6
0 130 0 131 -35 6 c-41 8 -65 38 -72 95 l-5 40 53 3 54 3 3 128 3 127 -56 0
-55 0 0 130 0 130 -116 0 -115 0 3 -337z"/>
<path d="M7490 1765 l0 -455 115 0 115 0 0 455 0 455 -115 0 -115 0 0 -455z"/>
<path d="M8502 1873 c3 -339 4 -349 26 -398 50 -108 124 -156 250 -163 l82 -5
0 130 0 130 -39 7 c-67 10 -66 6 -69 343 l-3 303 -125 0 -125 0 3 -347z"/>
<path d="M16272 1878 l3 -343 28 -57 c48 -99 144 -166 249 -175 l58 -6 0 130
0 131 -35 6 c-42 8 -75 53 -75 104 0 32 0 32 50 32 l50 0 0 130 0 130 -50 0
-50 0 0 130 0 130 -116 0 -115 0 3 -342z"/>
<path d="M1065 1981 c-78 -20 -149 -84 -187 -166 -21 -47 -23 -65 -26 -278
l-4 -228 119 3 118 3 5 210 5 210 26 3 c14 2 31 -3 37 -11 8 -9 12 -82 14
-213 l3 -199 115 0 115 0 0 215 c-1 237 -6 270 -58 346 -56 83 -184 131 -282
105z"/>
<path d="M2162 1972 c-138 -50 -222 -175 -222 -332 0 -91 23 -161 73 -222 63
-77 131 -111 232 -116 73 -4 89 -1 143 23 34 15 66 33 71 39 7 8 -7 32 -41 76
-28 36 -56 73 -63 84 -13 17 -15 17 -36 2 -49 -34 -101 -15 -130 47 -24 53
-24 101 0 154 21 46 45 63 90 63 28 0 71 -37 71 -61 0 -5 -27 -9 -60 -9 -54 0
-60 -2 -66 -24 -3 -13 -4 -38 -2 -57 l3 -34 178 -3 177 -2 1 22 c7 108 -23
196 -89 267 -84 90 -217 123 -330 83z"/>
<path d="M2878 1979 c-82 -19 -154 -94 -182 -188 -12 -43 -16 -102 -16 -268
l0 -213 114 0 114 0 4 191 c3 189 3 191 28 211 17 13 33 18 52 14 l28 -5 0
128 c0 125 -1 129 -22 135 -30 8 -74 6 -120 -5z"/>
<path d="M3305 1981 c-80 -21 -144 -77 -184 -161 -25 -54 -26 -61 -29 -282
l-3 -228 115 0 116 0 0 196 c0 115 4 203 10 215 12 21 50 25 68 7 9 -9 12 -70
12 -215 l0 -203 116 0 115 0 -3 238 c-3 217 -5 241 -24 282 -26 54 -74 105
-126 131 -42 22 -138 32 -183 20z"/>
<path d="M3990 1977 c-91 -26 -172 -97 -214 -186 -17 -38 -21 -65 -21 -151 0
-95 3 -111 28 -162 56 -114 166 -182 284 -176 l58 3 3 123 3 122 -39 -6 c-50
-8 -80 8 -98 53 -27 63 14 133 77 133 79 0 89 -27 89 -245 l0 -176 118 3 117
3 3 160 c4 253 -17 345 -100 428 -71 70 -207 103 -308 74z"/>
<path d="M5547 1980 c-87 -22 -173 -92 -216 -175 -89 -174 -12 -401 162 -480
51 -24 68 -27 140 -23 99 4 158 30 219 96 159 173 110 462 -97 562 -49 24
-153 34 -208 20z m137 -271 c31 -37 34 -81 7 -126 -36 -59 -123 -50 -151 16
-41 101 76 191 144 110z"/>
<path d="M6240 1975 c-60 -19 -119 -70 -155 -136 l-30 -54 -3 -237 -3 -238
115 0 116 0 0 203 c0 145 3 206 12 215 18 18 56 14 68 -7 6 -12 10 -100 10
-215 l0 -196 116 0 116 0 -4 233 c-3 219 -5 235 -27 285 -57 126 -197 188
-331 147z"/>
<path d="M6960 1981 c-85 -18 -177 -94 -220 -180 -64 -129 -39 -309 58 -406
65 -65 115 -88 203 -93 l79 -5 0 126 0 125 -40 -5 c-34 -5 -43 -2 -70 25 -41
42 -42 92 -1 133 39 38 88 40 122 3 23 -25 24 -31 27 -210 l3 -184 115 0 116
0 -4 223 c-3 215 -4 224 -29 277 -32 68 -79 116 -144 146 -55 25 -159 38 -215
25z"/>
<path d="M9145 1981 c-258 -68 -338 -422 -135 -604 62 -56 122 -77 215 -77 60
0 82 5 133 31 34 17 62 35 62 41 0 11 -107 155 -122 164 -5 3 -17 -1 -27 -10
-26 -23 -74 -20 -99 7 -80 85 -41 257 59 257 29 0 42 -6 58 -26 12 -15 21 -30
21 -35 0 -4 -28 -9 -62 -11 l-63 -3 -3 -57 -3 -58 182 0 182 0 -5 78 c-8 125
-75 230 -180 281 -51 24 -162 36 -213 22z"/>
<path d="M9860 1981 c-251 -55 -344 -401 -158 -590 62 -63 109 -83 201 -89
l77 -5 0 127 0 126 -40 -6 c-35 -6 -43 -3 -70 24 -41 42 -42 92 0 133 24 25
37 30 67 27 30 -2 42 -10 60 -37 22 -32 23 -43 23 -207 l0 -174 116 0 116 0
-4 223 c-3 206 -5 226 -26 273 -28 62 -92 126 -152 153 -51 23 -157 34 -210
22z"/>
<path d="M10585 1979 c-74 -18 -130 -70 -175 -164 -11 -23 -15 -87 -18 -267
l-4 -238 116 0 115 0 3 189 c3 172 5 191 23 211 15 17 27 21 52 17 l33 -6 0
128 c0 125 -1 129 -22 135 -31 8 -75 6 -123 -5z"/>
<path d="M11015 1981 c-78 -20 -147 -79 -187 -159 -22 -44 -23 -60 -26 -279
l-3 -233 115 0 116 0 0 196 c0 115 4 203 10 215 12 21 50 25 68 7 9 -9 12 -70
12 -215 l0 -203 115 0 115 0 0 218 c0 257 -8 299 -73 369 -22 24 -58 53 -79
64 -42 22 -138 32 -183 20z"/>
<path d="M12075 1981 c-78 -20 -149 -84 -187 -166 -21 -47 -23 -65 -26 -278
l-4 -228 119 3 118 3 5 210 5 210 26 3 c14 2 31 -3 37 -11 8 -9 12 -82 14
-213 l3 -199 115 0 115 0 0 215 c-1 237 -7 271 -58 346 -56 83 -184 131 -282
105z"/>
<path d="M12760 1977 c-91 -26 -172 -97 -214 -186 -31 -68 -30 -216 2 -286 49
-107 133 -164 240 -165 100 0 102 2 102 129 l0 109 -39 -5 c-33 -5 -44 -1 -65
20 -77 77 22 206 105 138 23 -19 24 -24 27 -197 4 -196 -6 -245 -55 -284 -28
-22 -110 -28 -144 -10 -18 10 -19 6 -19 -104 l0 -114 51 -12 c149 -36 309 54
371 208 22 54 23 70 23 292 0 265 -7 304 -71 378 -68 80 -207 119 -314 89z"/>
<path d="M15100 1977 c-91 -26 -172 -96 -213 -185 -17 -38 -21 -66 -22 -152 0
-90 3 -112 23 -151 34 -68 83 -121 143 -154 49 -27 62 -30 149 -30 81 0 102 4
143 24 73 38 73 40 16 112 -28 35 -57 72 -64 83 -13 17 -15 17 -36 2 -71 -50
-142 12 -142 124 0 90 36 140 102 140 28 0 71 -37 71 -61 0 -5 -27 -9 -60 -9
l-59 0 -7 -35 c-3 -19 -3 -46 0 -60 l6 -25 174 0 c200 0 191 -5 176 99 -17
118 -79 210 -176 257 -64 31 -157 40 -224 21z"/>
<path d="M15815 1981 c-74 -19 -144 -80 -186 -161 -23 -43 -24 -56 -27 -277
l-4 -233 116 0 116 0 0 196 c0 115 4 203 10 215 12 21 50 25 68 7 9 -9 12 -70
12 -215 l0 -203 116 0 115 0 -3 238 c-3 217 -5 241 -24 282 -26 54 -74 105
-126 131 -42 22 -138 32 -183 20z"/>
<path d="M16925 1977 c-64 -22 -97 -42 -141 -89 -72 -74 -97 -142 -96 -258 1
-127 72 -246 178 -300 74 -38 194 -41 266 -7 96 45 96 41 22 135 -63 79 -66
82 -87 67 -80 -56 -163 40 -142 165 10 61 48 100 95 100 30 0 43 -6 59 -26 12
-15 21 -31 21 -35 0 -5 -27 -9 -60 -9 -54 0 -60 -2 -66 -24 -3 -13 -4 -38 -2
-57 l3 -34 179 -3 179 -2 -5 77 c-6 95 -34 160 -96 221 -24 24 -63 53 -88 63
-57 26 -166 33 -219 16z"/>
<path d="M17609 1974 c-57 -17 -123 -79 -152 -142 -19 -43 -22 -67 -25 -284
l-4 -238 116 0 115 0 3 189 c3 172 5 191 23 211 15 17 27 21 52 17 l33 -6 0
128 c0 125 -1 129 -22 135 -36 9 -89 6 -139 -10z"/>
<path d="M480 1640 l0 -330 115 0 115 0 0 330 0 330 -115 0 -115 0 0 -330z"/>
<path d="M4960 1640 l0 -330 115 0 115 0 0 330 0 330 -115 0 -115 0 0 -330z"/>
<path d="M11490 1640 l0 -330 115 0 115 0 0 330 0 330 -115 0 -115 0 0 -330z"/>
</g>
</svg>
